<svg width="512" height="512" viewBox="0 0 512 512" xmlns="http://www.w3.org/2000/svg">
  <!-- Background -->
  <rect width="512" height="512" fill="#282a36" rx="64"/>
  
  <!-- Gradient Definition -->
  <defs>
    <radialGradient id="dotGradient" cx="50%" cy="50%" r="50%">
      <stop offset="0%" style="stop-color:#8be9fd;stop-opacity:1" />
      <stop offset="100%" style="stop-color:#00ffff;stop-opacity:1" />
    </radialGradient>
  </defs>
  
  <!-- Grid of dots representing the timer -->
  <g transform="translate(64, 64)">
    <!-- Row 1 -->
    <circle cx="48" cy="48" r="16" fill="url(#dotGradient)"/>
    <circle cx="144" cy="48" r="16" fill="url(#dotGradient)"/>
    <circle cx="240" cy="48" r="16" fill="url(#dotGradient)"/>
    <circle cx="336" cy="48" r="16" fill="#44475a"/>
    
    <!-- Row 2 -->
    <circle cx="48" cy="144" r="16" fill="url(#dotGradient)"/>
    <circle cx="144" cy="144" r="16" fill="url(#dotGradient)"/>
    <circle cx="240" cy="144" r="16" fill="#44475a"/>
    <circle cx="336" cy="144" r="16" fill="#44475a"/>
    
    <!-- Row 3 -->
    <circle cx="48" cy="240" r="16" fill="url(#dotGradient)"/>
    <circle cx="144" cy="240" r="16" fill="#44475a"/>
    <circle cx="240" cy="240" r="16" fill="#44475a"/>
    <circle cx="336" cy="240" r="16" fill="#44475a"/>
    
    <!-- Row 4 -->
    <circle cx="48" cy="336" r="16" fill="#44475a"/>
    <circle cx="144" cy="336" r="16" fill="#44475a"/>
    <circle cx="240" cy="336" r="16" fill="#44475a"/>
    <circle cx="336" cy="336" r="16" fill="#44475a"/>
  </g>
  
  <!-- Timer symbol overlay -->
  <circle cx="256" cy="256" r="80" fill="none" stroke="#8be9fd" stroke-width="8" opacity="0.6"/>
  <line x1="256" y1="256" x2="256" y2="196" stroke="#8be9fd" stroke-width="6" stroke-linecap="round" opacity="0.8"/>
  <line x1="256" y1="256" x2="296" y2="236" stroke="#8be9fd" stroke-width="4" stroke-linecap="round" opacity="0.8"/>
</svg>